<svg width="2501" height="2439" viewBox="0 0 2501 2439" fill="none" xmlns="http://www.w3.org/2000/svg">
<g clip-path="url(#clip0_812_1422)">
<path d="M443.302 0.546875H2057.89C2302.68 0.546875 2500.59 198.464 2500.59 443.255V1995.34C2500.59 2240.13 2302.68 2438.05 2057.89 2438.05H443.302C198.51 2438.05 0.59375 2240.13 0.59375 1995.34V443.255C0.59375 198.464 198.51 0.546875 443.302 0.546875Z" fill="#001E36"/>
<path d="M563.094 1709.92V638.047C563.094 630.755 566.219 626.588 573.51 626.588C591.219 626.588 607.885 626.588 631.844 625.547C656.844 624.505 682.885 624.505 711.01 623.463C739.135 622.422 769.344 622.422 801.635 621.38C833.927 620.338 865.177 620.338 896.427 620.338C981.844 620.338 1052.68 630.755 1111.01 652.63C1163.09 670.338 1211.01 699.505 1250.59 738.047C1283.93 771.38 1309.97 812.005 1326.64 856.797C1342.26 900.547 1350.59 945.338 1350.59 992.213C1350.59 1081.8 1329.76 1155.76 1288.09 1214.09C1246.43 1272.42 1188.09 1316.17 1120.39 1341.17C1049.55 1367.21 971.427 1376.59 886.01 1376.59C861.01 1376.59 844.344 1376.59 833.927 1375.55C823.51 1374.51 808.927 1374.51 789.135 1374.51V1708.88C790.177 1716.17 784.969 1722.42 777.677 1723.46H575.594C567.26 1723.46 563.094 1719.3 563.094 1709.92ZM790.177 827.63V1177.63C804.76 1178.67 818.302 1179.71 830.802 1179.71H886.01C926.635 1179.71 967.26 1173.46 1005.8 1160.96C1039.14 1151.59 1068.3 1131.8 1091.22 1105.76C1113.09 1079.71 1123.51 1044.3 1123.51 998.463C1124.55 966.172 1116.22 933.88 1099.55 905.755C1081.84 878.672 1056.84 857.838 1026.64 846.38C988.094 830.755 946.427 824.505 903.719 825.547C876.635 825.547 852.677 825.547 832.885 826.588C812.052 825.547 797.469 826.588 790.177 827.63ZM2000.59 1114.09C1969.34 1097.42 1936.01 1085.96 1900.59 1078.67C1862.05 1070.34 1823.51 1065.13 1783.93 1065.13C1763.09 1064.09 1741.22 1067.21 1721.43 1072.42C1707.89 1075.55 1696.43 1082.84 1689.14 1093.26C1683.93 1101.59 1680.8 1112.01 1680.8 1121.38C1680.8 1130.76 1684.97 1140.13 1691.22 1148.46C1700.59 1159.92 1713.09 1169.3 1726.64 1176.59C1750.59 1189.09 1775.59 1200.55 1800.59 1210.96C1856.84 1229.71 1911.01 1255.76 1961.01 1287.01C1995.39 1308.88 2023.51 1338.05 2043.3 1373.46C2059.97 1406.8 2068.3 1443.26 2067.26 1480.76C2068.3 1529.71 2053.72 1578.67 2026.64 1619.3C1997.47 1660.96 1956.84 1693.26 1909.97 1712.01C1858.93 1733.88 1796.43 1745.34 1721.43 1745.34C1673.51 1745.34 1626.64 1741.17 1579.76 1731.8C1543.3 1725.55 1506.84 1714.09 1473.51 1698.46C1466.22 1694.3 1461.01 1687.01 1462.05 1678.67V1497.42C1462.05 1494.3 1463.09 1490.13 1466.22 1488.05C1469.34 1485.96 1472.47 1487.01 1475.59 1489.09C1516.22 1513.05 1558.93 1529.71 1604.76 1540.13C1644.34 1550.55 1686.01 1555.76 1727.68 1555.76C1767.26 1555.76 1795.39 1550.55 1814.14 1541.17C1830.8 1533.88 1842.26 1516.17 1842.26 1497.42C1842.26 1482.84 1833.93 1469.3 1817.26 1455.76C1800.59 1442.21 1766.22 1426.59 1715.18 1406.8C1662.05 1388.05 1613.09 1363.05 1567.26 1331.8C1534.97 1308.88 1507.89 1278.67 1488.09 1243.26C1471.43 1209.92 1463.09 1173.46 1464.14 1137.01C1464.14 1092.21 1476.64 1049.51 1499.55 1010.96C1525.59 969.297 1564.14 935.963 1608.93 915.13C1657.89 890.13 1719.34 878.672 1793.3 878.672C1836.01 878.672 1879.76 881.797 1922.47 888.047C1953.72 892.213 1983.93 900.547 2012.05 912.005C2016.22 913.047 2020.39 917.213 2022.47 921.38C2023.51 925.547 2024.55 929.713 2024.55 933.88V1103.67C2024.55 1107.84 2022.47 1112.01 2019.34 1114.09C2009.97 1116.17 2004.76 1116.17 2000.59 1114.09Z" fill="#31A8FF"/>
</g>
<defs>
<clipPath id="clip0_812_1422">
<rect width="2500" height="2438" fill="white" transform="translate(0.59375 0.296875)"/>
</clipPath>
</defs>
</svg>
