<svg width="2501" height="2439" viewBox="0 0 2501 2439" fill="none" xmlns="http://www.w3.org/2000/svg">
<g clip-path="url(#clip0_812_1432)">
<path d="M443.208 0.75H2057.79C2302.58 0.75 2500.5 198.667 2500.5 443.458V1995.54C2500.5 2240.33 2302.58 2438.25 2057.79 2438.25H443.208C198.417 2438.25 0.5 2240.33 0.5 1995.54V443.458C0.5 198.667 198.417 0.75 443.208 0.75Z" fill="#470137"/>
<path d="M1315.08 641.375L1002.58 1157L1335.92 1703.87C1338 1708.04 1339.04 1712.21 1338 1716.37C1336.96 1720.54 1332.79 1717.42 1326.54 1718.46H1088C1071.33 1718.46 1059.88 1717.42 1052.58 1707C1030.71 1663.25 1007.79 1620.54 985.917 1576.79C964.042 1534.08 940.084 1490.33 915.084 1445.54C890.084 1400.75 865.083 1355.96 840.083 1310.12H838C816.125 1354.92 792.167 1399.71 768.208 1444.5C744.25 1489.29 720.292 1534.08 697.375 1577.83C673.417 1621.58 649.458 1666.37 625.5 1709.08C621.333 1719.5 613 1720.54 601.542 1720.54H372.375C368.208 1720.54 365.083 1722.62 365.083 1717.42C364.042 1713.25 365.083 1709.08 367.167 1705.96L691.125 1174.71L375.5 640.333C372.375 636.166 371.333 632 373.417 629.916C375.5 626.791 379.667 625.75 383.833 625.75H620.292C625.5 625.75 630.708 626.791 634.875 627.833C639.042 629.916 642.167 633.041 645.292 637.208C665.083 682 688 726.791 711.958 771.583C736.958 816.375 760.917 860.125 786.958 903.875C811.958 947.625 834.875 991.375 856.75 1036.17H858.833C880.708 990.333 903.625 945.541 926.542 901.791C949.458 858.041 973.417 814.291 997.375 770.541C1021.33 726.791 1044.25 682 1067.17 639.291C1068.21 635.125 1070.29 630.958 1073.42 628.875C1077.58 626.791 1081.75 625.75 1086.96 626.791H1306.75C1311.96 625.75 1317.17 628.875 1318.21 634.083C1319.25 635.125 1317.17 639.291 1315.08 641.375ZM1796.33 1740.33C1719.25 1741.37 1642.17 1725.75 1572.38 1693.46C1506.75 1663.25 1452.58 1613.25 1415.08 1551.79C1376.54 1488.25 1357.79 1409.08 1357.79 1314.29C1356.75 1237.21 1376.54 1161.17 1415.08 1094.5C1454.67 1026.79 1511.96 970.541 1580.71 933.041C1653.63 892.416 1741.13 872.625 1844.25 872.625C1849.46 872.625 1856.75 872.625 1866.13 873.666C1875.5 874.708 1885.92 874.708 1898.42 875.75V546.583C1898.42 539.291 1901.54 535.125 1908.83 535.125H2120.29C2125.5 534.083 2129.67 538.25 2130.71 542.416V1536.17C2130.71 1554.92 2131.75 1575.75 2132.79 1598.67C2134.88 1620.54 2135.92 1641.37 2136.96 1659.08C2136.96 1666.37 2133.83 1672.62 2126.54 1675.75C2072.38 1698.67 2015.08 1715.33 1956.75 1725.75C1903.63 1735.12 1850.5 1740.33 1796.33 1740.33ZM1898.42 1532V1073.67C1889.04 1071.58 1879.67 1069.5 1870.29 1068.46C1858.83 1067.42 1847.38 1066.37 1835.92 1066.37C1795.29 1066.37 1754.67 1074.71 1718.21 1093.46C1682.79 1111.17 1652.58 1137.21 1629.67 1170.54C1606.75 1203.87 1595.29 1248.67 1595.29 1302.83C1594.25 1339.29 1600.5 1375.75 1613 1410.12C1623.42 1438.25 1639.04 1463.25 1659.88 1484.08C1679.67 1502.83 1703.63 1517.42 1730.71 1525.75C1758.83 1535.12 1788 1539.29 1817.17 1539.29C1832.79 1539.29 1847.38 1538.25 1860.92 1537.21C1874.46 1538.25 1885.92 1536.17 1898.42 1532Z" fill="#FF61F6"/>
</g>
<defs>
<clipPath id="clip0_812_1432">
<rect width="2500" height="2438" fill="white" transform="translate(0.5 0.5)"/>
</clipPath>
</defs>
</svg>
