<svg width="2500" height="2439" viewBox="0 0 2500 2439" fill="none" xmlns="http://www.w3.org/2000/svg">
<g clip-path="url(#clip0_812_1418)">
<path d="M442.713 0.865723H2057.29C2302.08 0.865723 2500 198.786 2500 443.576V1995.66C2500 2240.45 2302.08 2438.37 2057.29 2438.37H442.713C197.923 2438.37 0.00292969 2240.45 0.00292969 1995.66V443.576C0.00292969 198.786 197.923 0.865723 442.713 0.865723Z" fill="#00005B"/>
<path d="M1004.17 1459.2H616.673L537.503 1705.03C535.423 1714.4 527.083 1720.65 517.713 1719.61H321.883C310.423 1719.61 307.303 1713.36 310.423 1700.86L645.843 739.396C648.963 728.976 652.093 719.606 656.263 707.106C660.433 685.236 662.513 662.316 662.513 639.396C661.473 634.186 665.633 628.976 670.843 627.936H940.633C947.923 627.936 953.133 631.056 954.173 636.266L1334.38 1698.77C1337.51 1710.23 1334.38 1715.44 1323.96 1715.44H1106.25C1098.96 1716.48 1091.67 1711.27 1089.58 1703.98L1004.16 1453.98V1459.19L1004.17 1459.2ZM677.093 1251.91H941.673C935.423 1230.04 927.093 1203.99 917.713 1176.91C908.333 1148.79 898.963 1118.58 889.593 1087.33C879.173 1055.04 869.803 1023.79 859.383 991.496C848.963 959.206 839.593 928.996 831.263 898.786C822.933 869.616 815.643 842.536 808.343 817.536H806.263C796.883 862.326 785.433 907.116 770.843 951.916C755.223 1001.92 739.593 1054 722.923 1106.09C709.383 1159.21 692.713 1208.17 677.093 1251.92V1251.91ZM1947.92 1365.45H1617.71C1621.88 1397.74 1632.29 1430.03 1650 1458.16C1668.75 1486.28 1694.79 1508.16 1726.04 1520.66C1767.71 1538.37 1813.54 1547.74 1859.37 1546.7C1895.83 1545.66 1932.29 1542.53 1967.7 1535.24C1999.99 1531.07 2031.24 1522.74 2060.41 1511.28C2065.62 1507.11 2068.74 1509.2 2068.74 1519.61V1678.99C2068.74 1683.16 2067.7 1687.32 2066.66 1691.49C2064.58 1694.62 2062.49 1696.7 2059.37 1698.78C2026.04 1713.36 1991.66 1723.78 1955.2 1730.03C1906.24 1739.4 1857.28 1743.57 1807.28 1742.53C1728.11 1742.53 1661.45 1730.03 1607.28 1706.07C1556.24 1684.19 1511.45 1649.82 1476.03 1607.11C1442.7 1566.49 1418.74 1520.65 1404.16 1470.65C1389.58 1421.69 1382.28 1370.65 1382.28 1318.57C1382.28 1262.32 1390.61 1207.11 1408.32 1152.94C1424.99 1100.86 1451.03 1052.94 1486.44 1010.23C1520.82 968.556 1563.52 935.226 1612.48 911.266C1661.44 887.306 1719.77 878.976 1786.44 878.976C1841.65 877.936 1896.86 888.356 1947.9 911.266C1990.61 930.016 2028.11 958.146 2057.28 994.596C2084.36 1030.02 2106.24 1069.6 2119.78 1113.35C2133.32 1155.02 2139.57 1197.72 2139.57 1240.43C2139.57 1265.43 2138.53 1287.31 2137.49 1307.1C2135.41 1326.89 2134.36 1341.48 2133.32 1350.85C2132.28 1358.14 2126.03 1364.39 2118.74 1364.39C2112.49 1364.39 2101.03 1365.43 2084.36 1366.47C2067.69 1368.55 2047.9 1369.6 2023.94 1369.6C1999.98 1369.6 1974.98 1365.43 1947.9 1365.43L1947.92 1365.45ZM1617.71 1213.37H1837.5C1864.58 1213.37 1884.38 1213.37 1896.87 1212.33C1905.2 1211.29 1913.54 1209.2 1920.83 1204V1193.58C1920.83 1180.04 1918.75 1167.54 1914.58 1155.04C1895.83 1096.71 1840.62 1057.12 1779.16 1059.21C1721.87 1056.08 1667.7 1086.29 1640.62 1138.38C1628.12 1162.34 1620.83 1187.34 1617.7 1213.38L1617.71 1213.37Z" fill="#9999FF"/>
</g>
<defs>
<clipPath id="clip0_812_1418">
<rect width="2500" height="2438" fill="white" transform="translate(0.00292969 0.615723)"/>
</clipPath>
</defs>
</svg>
