<svg width="129" height="129" viewBox="0 0 129 129" fill="none" xmlns="http://www.w3.org/2000/svg">
<path d="M64.31 1.52637L5.05298 22.3804L14.416 100.017L64.373 127.474L114.587 99.6464L123.947 22.0114L64.31 1.52637Z" fill="#B3B3B3"/>
<path d="M118.036 26.4979L64.1721 8.12891V120.914L109.313 95.9309L118.036 26.4979Z" fill="#A6120D"/>
<path d="M11.7009 26.829L19.7269 96.263L64.1709 120.914V8.12695L11.7009 26.829Z" fill="#DD1B16"/>
<path d="M78.9989 68.1696L64.1719 75.1036H48.5439L41.1969 93.4776L27.5339 93.7316L64.1719 12.2236L78.9989 68.1696ZM77.5649 64.6786L64.2699 38.3576L53.3639 64.2256H64.1709L77.5649 64.6786Z" fill="#F2F2F2"/>
<path d="M64.1709 12.2236L64.2689 38.3576L76.6439 64.2456H64.1979L64.1709 75.0866L81.3799 75.1036L89.4219 93.7336L102.496 93.9756L64.1709 12.2236Z" fill="#B3B3B3"/>
</svg>
