<svg width="2501" height="2501" viewBox="0 0 2501 2501" fill="none" xmlns="http://www.w3.org/2000/svg">
<g clip-path="url(#clip0_815_1413)">
<path d="M0.506836 2178.48C0.506836 2356.52 144.833 2500.83 322.86 2500.83H2178.14C2356.2 2500.83 2500.51 2356.5 2500.51 2178.48V323.194C2500.51 145.138 2356.18 0.831055 2178.15 0.831055H322.87C144.813 0.831055 0.506836 145.157 0.506836 323.185V2178.48Z" fill="#563D7C"/>
<path d="M1037.21 1106.67V752.638H1348.84C1378.52 752.638 1407.14 755.108 1434.7 760.06C1462.25 765.001 1486.64 773.829 1507.84 786.554C1529.03 799.278 1546 816.944 1558.72 839.552C1571.43 862.169 1577.8 891.144 1577.8 926.466C1577.8 990.069 1558.72 1036.01 1520.56 1064.27C1482.4 1092.54 1433.64 1106.67 1374.28 1106.67H1037.21ZM704.364 493.995V2007.67H1437.88C1505.72 2007.67 1571.8 1999.19 1636.1 1982.23C1700.41 1965.26 1757.65 1939.12 1807.82 1903.79C1857.99 1868.46 1897.92 1822.87 1927.6 1767.05C1957.28 1711.22 1972.12 1645.15 1972.12 1568.83C1972.12 1474.13 1949.15 1393.22 1903.22 1326.09C1857.28 1258.96 1787.67 1211.96 1694.39 1185.11C1762.24 1152.61 1813.48 1110.91 1848.1 1060.03C1882.72 1009.15 1900.04 945.558 1900.04 869.23C1900.04 798.565 1888.38 739.21 1865.06 691.153C1841.74 643.106 1808.88 604.591 1766.47 575.616C1724.08 546.642 1673.2 525.792 1613.84 513.077C1554.48 500.353 1488.76 493.995 1416.68 493.995H704.364ZM1037.21 1749.02V1333.51H1399.72C1471.8 1333.51 1529.75 1350.11 1573.56 1383.33C1617.37 1416.54 1639.29 1472.01 1639.29 1549.75C1639.29 1589.33 1632.57 1621.83 1619.14 1647.27C1605.71 1672.71 1587.69 1692.85 1565.08 1707.69C1542.47 1722.53 1516.32 1733.13 1486.64 1739.49C1456.95 1745.84 1425.87 1749.02 1393.36 1749.02H1037.21Z" fill="white"/>
</g>
<defs>
<clipPath id="clip0_815_1413">
<rect width="2500" height="2500" fill="white" transform="translate(0.506836 0.831055)"/>
</clipPath>
</defs>
</svg>
