<svg width="261" height="91" viewBox="0 0 261 91" fill="none" xmlns="http://www.w3.org/2000/svg">
<path fill-rule="evenodd" clip-rule="evenodd" d="M19.8052 45.0126C19.7621 53.2101 25.773 58.097 35.3652 55.8751V34.1501C25.6518 31.192 19.8458 37.1766 19.8052 45.0126ZM35.6586 2.73633H48.8699V65.2698C36.2065 67.3401 24.078 68.6532 15.4015 63.8016C4.22959 57.5554 3.33145 37.706 12.1718 28.8654C16.654 24.3835 25.6774 21.2282 35.3652 23.2873V3.61728C35.3399 3.2004 35.3165 2.78539 35.6586 2.73633Z" fill="black"/>
<path fill-rule="evenodd" clip-rule="evenodd" d="M70.3016 16.5348H57.0903V2.73633H70.3016V16.5348Z" fill="black"/>
<path fill-rule="evenodd" clip-rule="evenodd" d="M228.837 56.4619C243.239 62.0588 244.832 30.6832 230.305 33.5622C221.283 35.3504 221.573 53.6391 228.837 56.4619ZM229.424 22.6997C240.422 21.5238 248.72 26.3772 252.03 33.856C257.678 46.6163 251.72 61.2582 242.636 65.5632C237.927 67.7944 232.997 68.0069 228.543 67.6181C214.777 66.4175 206.094 52.3875 210.928 36.7916C211.685 34.3507 212.535 32.8575 212.984 32.0944C215.976 27.0063 221.028 23.5975 229.424 22.6997Z" fill="black"/>
<path fill-rule="evenodd" clip-rule="evenodd" d="M88.5039 51.4712C84.8498 57.6121 94.0307 59.0834 99.9532 57.343V48.2418C95.4026 48.8771 90.2229 48.5815 88.5039 51.4712ZM111.697 65.8568C100.784 66.4846 84.1986 70.2021 78.2282 62.9212C74.7207 58.643 75.0979 50.4834 78.2282 46.4802C82.2736 41.3077 91.1042 40.1796 99.0726 39.4343C99.7961 37.653 99.3082 34.7549 98.4854 33.5621C91.1967 31.7056 83.9548 34.5824 78.8157 36.7915V26.5165C86.5776 22.9502 104.556 19.1952 109.935 27.3971C112.76 31.7049 111.697 39.2177 111.697 45.8927V65.8568Z" fill="black"/>
<path fill-rule="evenodd" clip-rule="evenodd" d="M158.083 66.4447H144.872V49.4165C144.872 43.81 145.779 36.7009 142.816 34.4437C140.496 32.675 134.992 33.5625 131.661 34.4437V66.4447H118.449V25.6362C131.955 22.1281 156.332 18.3668 158.083 35.3243C158.947 43.685 157.444 56.2284 158.083 66.4447Z" fill="black"/>
<path fill-rule="evenodd" clip-rule="evenodd" d="M177.753 52.3517C179.976 55.9486 185.996 57.2973 190.964 54.9939C190.691 48.123 190.596 41.0745 190.671 33.8558C179.253 30.8392 172.449 43.7717 177.753 52.3517ZM210.928 24.4614C209.752 27.983 208.031 30.9589 206.525 34.1499C205.163 34.4549 203.983 33.6086 203.295 34.1499C202.994 48.4608 206.343 67.8614 200.653 78.187C197.227 84.4039 190.919 88.3924 181.276 89.0499C174.251 89.5289 168.799 88.3811 163.661 86.4077V74.077C169.688 77.5958 184.916 80.4645 189.203 73.1961C190.464 71.0577 190.384 68.8474 190.964 65.563C188.204 65.708 185.525 66.9861 182.157 67.0311C168.311 67.2149 159.745 56.1902 163.074 40.9017C164.361 34.988 167.826 30.2264 172.469 27.3971C182.111 21.5205 196.932 21.9667 210.928 24.4614Z" fill="black"/>
<path fill-rule="evenodd" clip-rule="evenodd" d="M70.3017 23.5215C70.2867 33.2499 70.2889 40.2405 70.2879 52.0593C69.7267 63.674 69.8573 72.9231 65.6045 78.4806C64.7657 79.5765 62.9845 81.1752 61.4942 82.2974C60.2426 83.2396 57.8573 85.1502 56.5032 85.2334C55.1382 85.3172 51.6313 83.3384 50.0442 82.5909C47.9601 81.6093 46.0335 80.3059 43.8792 79.6552C48.9045 76.5412 53.6748 74.2065 55.6223 67.9118C57.316 62.4374 57.0904 54.5046 57.0904 46.7737C57.0904 39.1399 57.1245 30.2649 57.1245 23.5249L70.3017 23.5215Z" fill="black"/>
</svg>
