<svg width="257" height="257" viewBox="0 0 257 257" fill="none" xmlns="http://www.w3.org/2000/svg">
<g clip-path="url(#clip0_812_1469)">
<path d="M228.5 0.5H28.5C13.036 0.5 0.5 13.036 0.5 28.5V228.5C0.5 243.964 13.036 256.5 28.5 256.5H228.5C243.964 256.5 256.5 243.964 256.5 228.5V28.5C256.5 13.036 243.964 0.5 228.5 0.5Z" fill="#092E20"/>
<path d="M186.877 94.6981V160.924C186.877 183.744 185.207 194.688 180.199 204.149C175.56 213.241 169.438 218.991 156.824 225.299L130.294 212.684C142.91 206.748 149.032 201.554 152.927 193.574C157.009 185.413 158.309 175.951 158.309 151.093V94.6981H186.877ZM141.428 50.5781V182.817C126.773 185.599 116.013 186.712 104.326 186.712C69.449 186.712 51.269 170.945 51.269 140.705C51.269 111.579 70.563 92.6581 100.429 92.6581C105.067 92.6581 108.592 93.0281 112.859 94.1411V50.5801L141.428 50.5781ZM103.213 115.66C88.743 115.66 80.394 124.565 80.394 140.147C80.394 155.361 88.372 163.708 103.028 163.708C106.18 163.708 108.778 163.523 112.859 162.968V117.143C109.52 116.031 106.738 115.66 103.213 115.66ZM186.877 50.7301V80.0421H158.309V50.7311L186.877 50.7301Z" fill="#FFFFFD"/>
</g>
<defs>
<clipPath id="clip0_812_1469">
<rect width="256" height="256" fill="white" transform="translate(0.5 0.5)"/>
</clipPath>
</defs>
</svg>
