<svg width="65" height="65" viewBox="0 0 65 65" fill="none" xmlns="http://www.w3.org/2000/svg">
<g clip-path="url(#clip0_812_1436)">
<path d="M21.4469 64.4886C24.2759 64.4886 26.989 63.3648 28.9894 61.3644C30.9898 59.364 32.1136 56.6509 32.1136 53.8219V43.1553H21.4469C18.618 43.1553 15.9049 44.2791 13.9045 46.2795C11.9041 48.2799 10.7803 50.993 10.7803 53.8219C10.7803 56.6509 11.9041 59.364 13.9045 61.3644C15.9049 63.3648 18.618 64.4886 21.4469 64.4886Z" fill="#0ACF83"/>
<path d="M10.7803 32.488C10.7803 29.659 11.9041 26.9459 13.9045 24.9455C15.9049 22.9451 18.618 21.8213 21.4469 21.8213H32.1136V43.1546H21.4469C18.618 43.1546 15.9049 42.0308 13.9045 40.0304C11.9041 38.03 10.7803 35.3169 10.7803 32.488Z" fill="#A259FF"/>
<path d="M10.7803 11.1549C10.7803 8.32741 11.9029 5.61557 13.9015 3.61542C15.9001 1.61527 18.6111 0.49049 21.4386 0.488281L32.1053 0.488281V21.8216H21.4469C18.618 21.8216 15.9049 20.6978 13.9045 18.6974C11.9041 16.697 10.7803 13.9839 10.7803 11.1549Z" fill="#F24E1E"/>
<path d="M32.1138 0.488281H42.7804C45.6094 0.488281 48.3225 1.61209 50.3229 3.61248C52.3233 5.61286 53.4471 8.32597 53.4471 11.1549C53.4471 13.9839 52.3233 16.697 50.3229 18.6974C48.3225 20.6978 45.6094 21.8216 42.7804 21.8216H32.1138V0.488281Z" fill="#FF7262"/>
<path d="M53.4471 32.488C53.4471 35.3169 52.3233 38.03 50.3229 40.0304C48.3225 42.0308 45.6094 43.1546 42.7804 43.1546C39.9515 43.1546 37.2384 42.0308 35.238 40.0304C33.2376 38.03 32.1138 35.3169 32.1138 32.488C32.1138 29.659 33.2376 26.9459 35.238 24.9455C37.2384 22.9451 39.9515 21.8213 42.7804 21.8213C45.6094 21.8213 48.3225 22.9451 50.3229 24.9455C52.3233 26.9459 53.4471 29.659 53.4471 32.488Z" fill="#1ABCFE"/>
</g>
<defs>
<clipPath id="clip0_812_1436">
<rect width="64" height="64" fill="white" transform="translate(0.105469 0.488281)"/>
</clipPath>
</defs>
</svg>
