<svg width="241" height="235" viewBox="0 0 241 235" fill="none" xmlns="http://www.w3.org/2000/svg">
<g clip-path="url(#clip0_812_1429)">
<path d="M43 0.500019H198C203.583 0.494757 209.112 1.59046 214.27 3.72442C219.429 5.85838 224.116 8.98871 228.064 12.9362C232.011 16.8838 235.142 21.571 237.276 26.7297C239.41 31.8885 240.505 37.4174 240.5 43V192C240.505 197.583 239.41 203.112 237.276 208.27C235.142 213.429 232.011 218.116 228.064 222.064C224.116 226.011 219.429 229.142 214.27 231.276C209.112 233.41 203.583 234.505 198 234.5H43C37.4174 234.505 31.8885 233.41 26.7297 231.276C21.571 229.142 16.8838 226.011 12.9362 222.064C8.98871 218.116 5.85838 213.429 3.72442 208.27C1.59046 203.112 0.494757 197.583 0.500019 192V43C0.494757 37.4174 1.59046 31.8885 3.72442 26.7297C5.85838 21.571 8.98871 16.8838 12.9362 12.9362C16.8838 8.98871 21.571 5.85838 26.7297 3.72442C31.8885 1.59046 37.4174 0.494757 43 0.500019Z" fill="#330000"/>
<path d="M116.8 140.9H79.5999L71.9999 164.4C71.915 164.828 71.673 165.209 71.3214 165.468C70.9699 165.727 70.5342 165.846 70.0999 165.8H51.2999C50.1999 165.8 49.8999 165.2 50.1999 164L82.3999 71.2998C82.6999 70.2998 82.9999 69.1998 83.3999 67.9998C83.8023 65.8566 84.0032 63.6805 83.9999 61.4998C83.9699 61.2494 84.0357 60.9968 84.1841 60.7929C84.3324 60.5889 84.5524 60.4485 84.7999 60.3998H110.7C111.5 60.3998 111.9 60.6998 112 61.1998L148.5 164.2C148.8 165.3 148.5 165.8 147.5 165.8H126.6C126.246 165.834 125.892 165.742 125.6 165.541C125.307 165.34 125.095 165.042 125 164.7L116.8 140.9ZM85.3999 120.6H110.8C110.2 118.5 109.4 116 108.5 113.4C107.6 110.8 106.7 107.8 105.8 104.8C104.9 101.8 103.9 98.6998 102.9 95.5998C101.9 92.4998 101 89.5998 100.2 86.6998C99.3999 83.7998 98.6999 81.2998 97.9999 78.8998H97.7999C96.9012 83.2582 95.7662 87.5646 94.3999 91.7998C92.8999 96.5998 91.3999 101.6 89.7999 106.6C88.3999 111.7 86.8999 116.4 85.3999 120.6ZM170.3 77.4998C168.658 77.5357 167.026 77.2448 165.498 76.6439C163.97 76.043 162.577 75.1442 161.4 73.9998C159.109 71.4947 157.889 68.1928 158 64.7998C157.941 63.1466 158.231 61.4996 158.851 59.9661C159.472 58.4326 160.408 57.047 161.6 55.8998C164.003 53.628 167.193 52.3738 170.5 52.3998C174.4 52.3998 177.4 53.5998 179.6 55.8998C181.815 58.3246 182.999 61.5169 182.9 64.7998C182.961 66.4894 182.683 68.174 182.081 69.7542C181.48 71.3344 180.568 72.778 179.4 73.9998C178.222 75.2 176.8 76.1335 175.23 76.7373C173.66 77.3411 171.979 77.6011 170.3 77.4998ZM159.1 164.3V87.2998C159.1 86.2998 159.5 85.8998 160.4 85.8998H180.2C181.1 85.8998 181.5 86.3998 181.5 87.2998V164.3C181.5 165.4 181.1 165.9 180.2 165.9H160.6C160.39 165.917 160.178 165.887 159.982 165.811C159.785 165.735 159.608 165.616 159.463 165.462C159.319 165.308 159.212 165.124 159.149 164.923C159.086 164.721 159.069 164.508 159.1 164.3Z" fill="#FF9A00"/>
</g>
<defs>
<clipPath id="clip0_812_1429">
<rect width="240" height="234" fill="white" transform="translate(0.5 0.5)"/>
</clipPath>
</defs>
</svg>
