<svg width="2501" height="625" viewBox="0 0 2501 625" fill="none" xmlns="http://www.w3.org/2000/svg">
<g clip-path="url(#clip0_812_1456)">
<path d="M98.7127 0.671875V510.537H283.193V598.354H0.5V0.671875H98.7127ZM629.592 254.167V200.415H722.938V598.575H630.035V544.602C617.205 564.51 599.509 579.994 576.504 591.054C553.499 602.778 530.052 608.308 506.826 608.308C476.522 608.308 448.872 602.778 423.876 591.718C399.444 581.128 377.456 565.616 359.286 546.151C341.272 526.837 327.019 504.332 317.258 479.791C307.207 454.149 302.175 426.814 302.438 399.274C302.438 371.403 307.525 344.638 317.479 319.642C327.123 294.777 341.383 271.961 359.507 252.397C377.51 232.826 399.345 217.165 423.655 206.388C448.872 195.328 476.743 189.798 506.605 189.798C529.831 189.798 553.057 195.549 576.062 206.83C599.067 218.332 616.763 233.816 629.15 253.724L629.592 254.167ZM621.187 448.159C627.014 432.595 630.011 416.114 630.035 399.495C630.035 382.242 626.938 366.315 621.187 350.831C615.89 335.932 607.78 322.19 597.297 310.352C586.838 298.963 574.202 289.787 560.135 283.365C545.012 276.426 528.553 272.878 511.914 272.969C494.218 272.969 478.292 276.729 464.135 283.586C450.267 290.028 437.793 299.121 427.416 310.352C416.96 322.133 408.985 335.9 403.968 350.831C398.482 366.466 395.714 382.925 395.784 399.495C395.784 416.527 398.438 432.675 403.968 448.159C409.277 463.643 417.24 476.915 427.416 487.975C437.703 499.533 450.184 508.932 464.135 515.625C478.292 522.261 494.218 525.8 511.914 525.8C529.61 525.8 545.757 522.482 560.135 515.625C574.243 509.078 586.884 499.749 597.297 488.196C607.707 476.555 615.814 463.044 621.187 448.38V448.159ZM796.377 598.575V200.415H1048.99V291.992H889.281V598.354H796.377V598.575ZM1386.32 254.167V200.415H1479.22V598.575H1386.32V544.602C1373.93 564.51 1356.01 579.994 1333.23 591.054C1310 602.778 1286.78 608.308 1263.33 608.308C1233.03 608.308 1205.38 602.778 1180.38 591.718C1155.95 581.128 1133.96 565.616 1115.79 546.151C1097.78 526.837 1083.52 504.332 1073.76 479.791C1063.79 454.134 1058.83 426.8 1059.16 399.274C1059.16 371.403 1064.03 344.638 1073.98 319.642C1083.63 294.777 1097.89 271.961 1116.01 252.397C1134.01 232.826 1155.85 217.165 1180.16 206.388C1205.38 195.328 1233.25 189.798 1263.11 189.798C1286.33 189.798 1309.56 195.549 1332.57 206.83C1355.57 218.332 1373.49 233.816 1385.65 253.724L1386.32 254.167ZM1377.91 448.159C1383.59 432.567 1386.43 416.087 1386.32 399.495C1386.32 382.242 1383.44 366.315 1377.91 350.831C1372.68 335.95 1364.65 322.208 1354.24 310.352C1343.65 298.915 1330.86 289.736 1316.64 283.365C1302.26 276.729 1286.11 272.969 1268.64 272.969C1250.94 272.969 1235.02 276.729 1220.64 283.586C1206.77 290.028 1194.3 299.121 1183.92 310.352C1173.46 322.133 1165.49 335.9 1160.47 350.831C1155.06 366.479 1152.37 382.938 1152.51 399.495C1152.51 416.527 1155.16 432.675 1160.47 448.159C1166 463.643 1173.74 476.915 1183.92 487.975C1194.21 499.533 1206.69 508.932 1220.64 515.625C1235.02 522.261 1250.94 525.8 1268.64 525.8C1286.33 525.8 1302.26 522.482 1316.86 515.625C1331.13 509.129 1343.92 499.797 1354.46 488.196C1364.8 476.537 1372.83 463.027 1378.13 448.38L1377.91 448.159ZM1852.61 200.415H1947.06L1794.43 598.575H1677.19L1524.57 200.415H1618.58L1735.81 505.229L1852.61 200.636V200.415ZM2149.9 190.24C2276.65 190.24 2363.13 302.61 2346.77 434.002H2037.75C2037.75 468.067 2072.7 534.427 2154.99 534.427C2225.77 534.427 2273.33 472.491 2273.33 472.491L2336.15 521.155C2279.74 580.879 2233.73 608.529 2161.4 608.529C2032.66 608.529 1945.51 526.685 1945.51 399.053C1945.51 283.365 2035.76 189.798 2149.68 189.798L2149.9 190.24ZM2038.19 364.988H2261.6C2260.72 357.246 2248.33 264.121 2149.23 264.121C2049.69 264.121 2039.08 357.467 2038.19 364.988ZM2407.6 597.911V0.671875H2500.5V598.354H2407.6V597.911Z" fill="#FF2D20"/>
</g>
<defs>
<clipPath id="clip0_812_1456">
<rect width="2500" height="624" fill="white" transform="translate(0.5 0.5)"/>
</clipPath>
</defs>
</svg>
