<svg width="241" height="235" viewBox="0 0 241 235" fill="none" xmlns="http://www.w3.org/2000/svg">
<g clip-path="url(#clip0_812_1426)">
<path d="M42.6983 0.243183H197.698C203.281 0.237921 208.81 1.33363 213.969 3.46759C219.127 5.60155 223.814 8.73187 227.762 12.6794C231.71 16.6269 234.84 21.3142 236.974 26.4729C239.108 31.6316 240.204 37.1605 240.198 42.7432V191.743C240.204 197.326 239.108 202.855 236.974 208.013C234.84 213.172 231.71 217.859 227.762 221.807C223.814 225.754 219.127 228.885 213.969 231.019C208.81 233.153 203.281 234.248 197.698 234.243H42.6983C37.1156 234.248 31.5867 233.153 26.428 231.019C21.2693 228.885 16.582 225.754 12.6345 221.807C8.68695 217.859 5.55663 213.172 3.42266 208.013C1.2887 202.855 0.192999 197.326 0.198261 191.743V42.7432C0.192999 37.1605 1.2887 31.6316 3.42266 26.4729C5.55663 21.3142 8.68695 16.6269 12.6345 12.6794C16.582 8.73187 21.2693 5.60155 26.428 3.46759C31.5867 1.33363 37.1156 0.237921 42.6983 0.243183Z" fill="#001E36"/>
<path d="M126.198 165.643H62.7978C61.6978 165.643 61.1978 165.043 61.1978 163.843V61.6427C61.1755 61.4782 61.1864 61.3108 61.23 61.1506C61.2736 60.9904 61.3489 60.8405 61.4515 60.7099C61.5541 60.5794 61.6819 60.4707 61.8272 60.3905C61.9726 60.3102 62.1326 60.26 62.2978 60.2427H82.2978C82.4229 60.22 82.5513 60.2228 82.6753 60.2511C82.7992 60.2794 82.9162 60.3325 83.019 60.4073C83.1218 60.4821 83.2084 60.577 83.2735 60.6862C83.3386 60.7954 83.3809 60.9167 83.3978 61.0427V145.343H129.598C130.598 145.343 130.898 145.843 130.698 146.743L127.798 164.143C127.782 164.372 127.721 164.597 127.618 164.803C127.515 165.009 127.372 165.192 127.198 165.343C126.904 165.546 126.554 165.651 126.198 165.643ZM142.198 85.6427H159.698C160.172 85.6542 160.63 85.815 161.007 86.1024C161.384 86.3897 161.661 86.7888 161.798 87.2427C162.211 87.9502 162.483 88.7314 162.598 89.5427C162.798 90.5427 162.998 91.6427 163.098 92.6427C163.198 93.6427 163.298 94.9427 163.298 96.2427C166.3 92.7374 169.929 89.8212 173.998 87.6427C178.566 85.1662 183.702 83.9253 188.898 84.0427C189.062 84.0204 189.23 84.0314 189.39 84.0749C189.55 84.1185 189.7 84.1939 189.831 84.2964C189.961 84.399 190.07 84.5268 190.15 84.6722C190.23 84.8176 190.281 84.9776 190.298 85.1427V105.043C190.298 105.843 189.798 106.143 188.698 106.143C182.217 105.755 175.737 106.92 169.798 109.543C167.772 110.409 165.937 111.667 164.398 113.243V164.243C164.398 165.243 163.998 165.643 163.098 165.643H143.598C143.413 165.674 143.224 165.667 143.043 165.623C142.861 165.579 142.69 165.498 142.54 165.386C142.391 165.274 142.265 165.132 142.172 164.97C142.079 164.808 142.02 164.629 141.998 164.443V108.643C141.998 106.243 141.998 103.743 141.898 101.143C141.798 98.5427 141.798 95.9427 141.698 93.3427C141.598 91.1427 141.398 88.9427 141.098 86.7427C141.071 86.6245 141.068 86.5022 141.089 86.3829C141.11 86.2636 141.154 86.1495 141.219 86.0473C141.284 85.9451 141.369 85.8568 141.468 85.7873C141.567 85.7179 141.679 85.6688 141.798 85.6427C141.898 85.5427 141.998 85.5427 142.198 85.6427Z" fill="#31A8FF"/>
</g>
<defs>
<clipPath id="clip0_812_1426">
<rect width="240" height="234" fill="white" transform="translate(0.198242 0.243164)"/>
</clipPath>
</defs>
</svg>
