<svg width="595" height="154" viewBox="0 0 595 154" fill="none" xmlns="http://www.w3.org/2000/svg">
<path d="M16.256 124L1.92 29.92H15.36L22.272 85.472L22.784 94.56H23.552L24.064 85.472L30.976 29.92H44.416L30.08 124H16.256ZM51.495 124V29.92H65.319V124H51.495ZM92.26 125.024C88.4627 125.024 85.3053 124.405 82.788 123.168C80.2707 121.888 78.2867 120.053 76.836 117.664C75.3853 115.275 74.34 112.395 73.7 109.024C73.1027 105.653 72.804 101.856 72.804 97.632L86.372 96.352C86.372 98.4 86.436 100.384 86.564 102.304C86.7347 104.181 87.012 105.888 87.396 107.424C87.8227 108.917 88.42 110.112 89.188 111.008C89.9987 111.904 91.0227 112.352 92.26 112.352C94.308 112.352 95.7587 111.413 96.612 109.536C97.4653 107.616 97.892 105.312 97.892 102.624C97.892 99.936 97.188 97.1413 95.78 94.24C94.372 91.3387 92.6867 88.5867 90.724 85.984C87.396 81.5467 84.4733 77.4293 81.956 73.632C79.4813 69.8347 77.54 66.1013 76.132 62.432C74.7667 58.7627 74.084 54.9227 74.084 50.912C74.084 47.7547 74.4893 44.8533 75.3 42.208C76.1107 39.52 77.284 37.1947 78.82 35.232C80.3987 33.2267 82.2973 31.6693 84.516 30.56C86.7347 29.4507 89.2733 28.896 92.132 28.896C95.6733 28.896 98.66 29.4933 101.092 30.688C103.567 31.8827 105.551 33.5893 107.044 35.808C108.58 38.0267 109.689 40.672 110.372 43.744C111.097 46.7733 111.46 50.144 111.46 53.856L97.892 55.136C97.892 53.5573 97.8067 51.9787 97.636 50.4C97.508 48.7787 97.252 47.3067 96.868 45.984C96.484 44.6613 95.9293 43.5947 95.204 42.784C94.4787 41.9733 93.54 41.568 92.388 41.568C90.596 41.568 89.3587 42.336 88.676 43.872C87.9933 45.3653 87.652 47.4987 87.652 50.272C87.652 53.856 88.612 57.312 90.532 60.64C92.452 63.968 95.0333 67.8507 98.276 72.288C102.159 77.536 105.316 82.3573 107.748 86.752C110.223 91.1467 111.46 96.0107 111.46 101.344C111.46 104.715 111.097 107.851 110.372 110.752C109.647 113.611 108.495 116.107 106.916 118.24C105.38 120.373 103.396 122.037 100.964 123.232C98.5747 124.427 95.6733 125.024 92.26 125.024ZM137.302 125.024C133.419 125.024 130.091 124.128 127.318 122.336C124.587 120.544 122.497 118.112 121.046 115.04C119.595 111.968 118.87 108.512 118.87 104.672V29.92H132.694V104.672C132.694 106.507 133.057 108.128 133.782 109.536C134.507 110.901 135.681 111.584 137.302 111.584C139.009 111.584 140.203 110.901 140.886 109.536C141.569 108.128 141.91 106.507 141.91 104.672V29.92H155.734V104.672C155.734 108.512 154.987 111.968 153.494 115.04C152.043 118.112 149.931 120.544 147.158 122.336C144.427 124.128 141.142 125.024 137.302 125.024ZM163.115 124L177.323 29.92H194.219L208.427 124H194.987L192.427 104.8H179.115L176.555 124H163.115ZM181.035 90.208H190.507L186.539 58.592L186.155 53.6H185.387L185.003 58.592L181.035 90.208ZM215.745 124V29.92H229.569V111.2H247.873V124H215.745ZM349.365 124L363.573 29.92H380.469L394.677 124H381.237L378.677 104.8H365.365L362.805 124H349.365ZM367.285 90.208H376.757L372.789 58.592L372.405 53.6H371.637L371.253 58.592L367.285 90.208ZM401.995 124V29.92H415.819C424.096 29.92 430.198 32.224 434.123 36.832C438.048 41.3973 440.011 48.1387 440.011 57.056C440.011 62.3467 439.072 66.9333 437.195 70.816C435.36 74.656 433.12 77.472 430.475 79.264L439.883 124H426.059L418.251 84.32H415.819V124H401.995ZM415.819 71.52C418.379 71.52 420.406 70.9653 421.899 69.856C423.392 68.704 424.459 67.0827 425.099 64.992C425.739 62.9013 426.059 60.4267 426.059 57.568C426.059 53.088 425.312 49.6533 423.819 47.264C422.368 44.832 419.702 43.616 415.819 43.616V71.52ZM456.961 124V44.128H443.905V29.92H483.841V44.128H470.785V124H456.961ZM490.245 124V29.92H504.069V124H490.245ZM531.01 125.024C527.213 125.024 524.055 124.405 521.538 123.168C519.021 121.888 517.037 120.053 515.586 117.664C514.135 115.275 513.09 112.395 512.45 109.024C511.853 105.653 511.554 101.856 511.554 97.632L525.122 96.352C525.122 98.4 525.186 100.384 525.314 102.304C525.485 104.181 525.762 105.888 526.146 107.424C526.573 108.917 527.17 110.112 527.938 111.008C528.749 111.904 529.773 112.352 531.01 112.352C533.058 112.352 534.509 111.413 535.362 109.536C536.215 107.616 536.642 105.312 536.642 102.624C536.642 99.936 535.938 97.1413 534.53 94.24C533.122 91.3387 531.437 88.5867 529.474 85.984C526.146 81.5467 523.223 77.4293 520.706 73.632C518.231 69.8347 516.29 66.1013 514.882 62.432C513.517 58.7627 512.834 54.9227 512.834 50.912C512.834 47.7547 513.239 44.8533 514.05 42.208C514.861 39.52 516.034 37.1947 517.57 35.232C519.149 33.2267 521.047 31.6693 523.266 30.56C525.485 29.4507 528.023 28.896 530.882 28.896C534.423 28.896 537.41 29.4933 539.842 30.688C542.317 31.8827 544.301 33.5893 545.794 35.808C547.33 38.0267 548.439 40.672 549.122 43.744C549.847 46.7733 550.21 50.144 550.21 53.856L536.642 55.136C536.642 53.5573 536.557 51.9787 536.386 50.4C536.258 48.7787 536.002 47.3067 535.618 45.984C535.234 44.6613 534.679 43.5947 533.954 42.784C533.229 41.9733 532.29 41.568 531.138 41.568C529.346 41.568 528.109 42.336 527.426 43.872C526.743 45.3653 526.402 47.4987 526.402 50.272C526.402 53.856 527.362 57.312 529.282 60.64C531.202 63.968 533.783 67.8507 537.026 72.288C540.909 77.536 544.066 82.3573 546.498 86.752C548.973 91.1467 550.21 96.0107 550.21 101.344C550.21 104.715 549.847 107.851 549.122 110.752C548.397 113.611 547.245 116.107 545.666 118.24C544.13 120.373 542.146 122.037 539.714 123.232C537.325 124.427 534.423 125.024 531.01 125.024ZM566.836 124V44.128H553.78V29.92H593.716V44.128H580.66V124H566.836Z" fill="black"/>
<path fill-rule="evenodd" clip-rule="evenodd" d="M281.75 36.9167C281.75 34.0214 282.9 31.2447 284.947 29.1974C286.995 27.1501 289.771 26 292.667 26H303.583C306.479 26 309.255 27.1501 311.303 29.1974C313.35 31.2447 314.5 34.0214 314.5 36.9167V58.75H336.333C339.229 58.75 342.005 59.9001 344.053 61.9474C346.1 63.9947 347.25 66.7714 347.25 69.6667V80.5833C347.25 83.4786 346.1 86.2553 344.053 88.3026C342.005 90.3499 339.229 91.5 336.333 91.5H314.5V113.333C314.5 116.229 313.35 119.005 311.303 121.053C309.255 123.1 306.479 124.25 303.583 124.25H292.667C289.771 124.25 286.995 123.1 284.947 121.053C282.9 119.005 281.75 116.229 281.75 113.333V91.5H259.917C257.021 91.5 254.245 90.3499 252.197 88.3026C250.15 86.2553 249 83.4786 249 80.5833V69.6667C249 66.7714 250.15 63.9947 252.197 61.9474C254.245 59.9001 257.021 58.75 259.917 58.75H281.75V36.9167Z" fill="black"/>
</svg>
