<svg width="513" height="310" viewBox="0 0 513 310" fill="none" xmlns="http://www.w3.org/2000/svg">
<g clip-path="url(#clip0_812_1453)">
<path d="M121.728 81.4832H218.296V89.1585H130.58V146.926H213.065V154.601H130.58V218.024H219.302V225.699H121.728V81.4832ZM226.947 81.4832H237.207L282.674 144.906L329.148 81.4832L392.359 0.921875L288.509 151.571L342.023 225.699H331.361L282.674 158.237L233.787 225.699H223.325L277.242 151.571L226.947 81.4832ZM345.846 89.1585V81.4832H455.893V89.1585H405.195V225.699H396.343V89.1585H345.846ZM0.91748 81.4832H11.9826L164.563 309.806L101.509 225.699L10.1719 92.3903L9.76954 225.699H0.91748V81.4832ZM455.001 215.707C453.193 215.707 451.836 214.306 451.836 212.495C451.836 210.684 453.193 209.283 455.001 209.283C456.831 209.283 458.166 210.684 458.166 212.495C458.166 214.306 456.831 215.707 455.001 215.707ZM463.699 207.257H468.436C468.501 209.822 470.374 211.547 473.13 211.547C476.208 211.547 477.952 209.693 477.952 206.222V184.232H482.775V206.243C482.775 212.495 479.158 216.095 473.173 216.095C467.553 216.095 463.699 212.603 463.699 207.257ZM489.084 206.976H493.863C494.272 209.93 497.157 211.805 501.313 211.805C505.188 211.805 508.03 209.8 508.03 207.041C508.03 204.669 506.222 203.247 502.109 202.277L498.105 201.306C492.485 199.991 489.923 197.275 489.923 192.705C489.923 187.164 494.445 183.478 501.227 183.478C507.535 183.478 512.142 187.164 512.422 192.403H507.729C507.277 189.536 504.779 187.746 501.162 187.746C497.351 187.746 494.811 189.579 494.811 192.381C494.811 194.602 496.447 195.874 500.495 196.822L503.918 197.663C510.291 199.151 512.917 201.738 512.917 206.416C512.917 212.366 508.31 216.095 500.947 216.095C494.057 216.095 489.428 212.538 489.084 206.976Z" fill="black"/>
</g>
<defs>
<clipPath id="clip0_812_1453">
<rect width="512" height="309" fill="white" transform="translate(0.91748 0.921875)"/>
</clipPath>
</defs>
</svg>
