<svg width="33" height="33" viewBox="0 0 33 33" fill="none" xmlns="http://www.w3.org/2000/svg">
<path d="M16.5 18.9736C17.8807 18.9736 19 17.8543 19 16.4736C19 15.0929 17.8807 13.9736 16.5 13.9736C15.1193 13.9736 14 15.0929 14 16.4736C14 17.8543 15.1193 18.9736 16.5 18.9736Z" fill="#00D8FF"/>
<path d="M16.5 22.2063C13.4951 22.279 10.4978 21.8739 7.62 21.0063C6.29062 20.5849 5.05073 19.921 3.963 19.0483C3.54793 18.7501 3.20227 18.3657 2.94974 17.9214C2.69721 17.4771 2.54379 16.9834 2.5 16.4743C2.5 14.8213 4.316 13.2013 7.358 12.1413C10.3127 11.202 13.3999 10.7468 16.5 10.7933C19.5587 10.7505 22.6045 11.1975 25.522 12.1173C26.8023 12.5254 28.0001 13.1572 29.06 13.9833C29.468 14.2675 29.8084 14.638 30.0573 15.0685C30.3061 15.4989 30.4573 15.9789 30.5 16.4743C30.5 18.1923 28.47 19.9333 25.2 21.0153C22.3779 21.8546 19.4438 22.2563 16.5 22.2063ZM16.5 11.9893C13.5341 11.9496 10.5808 12.3824 7.751 13.2713C4.951 14.2483 3.696 15.5843 3.696 16.4713C3.696 17.3993 5.045 18.8583 8.007 19.8713C10.7601 20.6971 13.6266 21.0816 16.5 21.0103C19.3164 21.0606 22.1239 20.6796 24.825 19.8803C27.9 18.8613 29.3 17.4003 29.3 16.4743C29.2495 16.1565 29.1337 15.8526 28.9599 15.5819C28.7861 15.3111 28.558 15.0794 28.29 14.9013C27.3418 14.1684 26.2717 13.6085 25.129 13.2473C22.338 12.371 19.425 11.9463 16.5 11.9893Z" fill="#00D8FF"/>
<path d="M10.8201 28.9435C10.3536 28.9542 9.8926 28.841 9.4841 28.6155C8.0521 27.7895 7.5561 25.4075 8.1571 22.2425C8.81974 19.2136 9.9679 16.3118 11.5571 13.6495C13.0478 10.9786 14.9563 8.56337 17.2101 6.49546C18.2033 5.59017 19.349 4.868 20.5941 4.36246C21.0445 4.1514 21.5357 4.04199 22.0331 4.04199C22.5305 4.04199 23.0217 4.1514 23.4721 4.36246C24.9611 5.22046 25.4541 7.84846 24.7591 11.2215C24.076 14.086 22.9577 16.8289 21.4431 19.3545C20.0048 21.9938 18.1565 24.388 15.9671 26.4475C14.9379 27.3882 13.7434 28.1304 12.4441 28.6365C11.9239 28.8295 11.3749 28.9333 10.8201 28.9435ZM12.5931 14.2435C11.0772 16.7928 9.97676 19.5672 9.3331 22.4625C8.7801 25.3775 9.3111 27.1305 10.0831 27.5765C10.8831 28.0395 12.8251 27.6005 15.1831 25.5405C17.2731 23.5674 19.0373 21.2757 20.4101 18.7505C21.861 16.336 22.9338 13.7136 23.5911 10.9745C24.2451 7.79946 23.6801 5.85546 22.8781 5.39346C22.5775 5.27829 22.2563 5.22673 21.9348 5.24205C21.6132 5.25737 21.2984 5.33923 21.0101 5.48246C19.9018 5.93981 18.8828 6.58909 18.0001 7.40046C15.8468 9.38125 14.0238 11.6934 12.6001 14.2495L12.5931 14.2435Z" fill="#00D8FF"/>
<path d="M22.177 28.956C20.822 28.956 19.101 28.136 17.309 26.595C15.0157 24.5083 13.075 22.0644 11.562 19.358C9.99278 16.7323 8.85371 13.8725 8.18805 10.887C7.89935 9.57347 7.84586 8.21917 8.03005 6.88698C8.07263 6.39279 8.22311 5.91395 8.47088 5.48424C8.71865 5.05453 9.05767 4.68441 9.46404 4.39998C10.951 3.53898 13.474 4.42398 16.049 6.70998C18.1896 8.73216 20.0074 11.0707 21.439 13.644C23.0073 16.2083 24.1584 19.0055 24.849 21.931C25.1502 23.2927 25.1966 24.6984 24.986 26.077C24.9359 26.5854 24.7765 27.0769 24.5186 27.518C24.2607 27.959 23.9106 28.339 23.492 28.632C23.0902 28.8547 22.6364 28.9665 22.177 28.956ZM12.597 18.756C14.0485 21.3424 15.9023 23.6813 18.089 25.685C20.338 27.62 22.122 28.036 22.889 27.585C23.689 27.12 24.279 25.222 23.671 22.151C23.0049 19.3579 21.9009 16.6879 20.4 14.24C19.0339 11.7771 17.2988 9.53784 15.255 7.59998C12.831 5.44798 10.865 4.96698 10.064 5.43098C9.81439 5.63386 9.60951 5.8863 9.46235 6.17237C9.31519 6.45843 9.22894 6.7719 9.20904 7.09298C9.05005 8.28107 9.10184 9.48788 9.36205 10.658C10.0023 13.5131 11.0948 16.2476 12.598 18.758L12.597 18.756Z" fill="#00D8FF"/>
</svg>
