<svg width="1168" height="67" viewBox="0 0 1168 67" fill="none" xmlns="http://www.w3.org/2000/svg">
<path d="M0.213867 1.12939H23.9956C30.9406 1.12939 36.9725 1.87646 42.0913 3.37061C47.2101 4.86475 51.4435 7.00911 54.7915 9.80371C58.1672 12.5706 60.6712 15.9463 62.3037 19.9307C63.9639 23.8874 64.7939 28.3421 64.7939 33.2949C64.7939 37.9987 63.9777 42.3566 62.3452 46.3687C60.7127 50.353 58.2225 53.8117 54.8745 56.7446C51.5265 59.6499 47.2931 61.9326 42.1743 63.5928C37.0555 65.2253 31.0236 66.0415 24.0786 66.0415L0.213867 66V1.12939ZM27.2329 54.6279C31.1619 54.6279 34.6068 54.1299 37.5674 53.1338C40.528 52.11 42.9906 50.6712 44.9551 48.8174C46.9473 46.9635 48.4414 44.7223 49.4375 42.0938C50.4336 39.4652 50.9316 36.5322 50.9316 33.2949C50.9316 30.113 50.4336 27.2492 49.4375 24.7036C48.4414 22.1304 46.9473 19.9583 44.9551 18.1875C42.9906 16.389 40.528 15.0055 37.5674 14.0371C34.6068 13.0687 31.1619 12.5845 27.2329 12.5845H13.3706V54.6279H27.2329ZM77.9922 1.12939H110.988C115.968 1.12939 120.285 1.65511 123.937 2.70654C127.589 3.73031 130.619 5.22445 133.026 7.18896C135.434 9.15348 137.218 11.5469 138.38 14.3691C139.57 17.1914 140.165 20.3872 140.165 23.9565C140.165 26.3638 139.875 28.6603 139.293 30.8462C138.712 33.0044 137.813 34.9966 136.596 36.8228C135.406 38.6489 133.898 40.2814 132.072 41.7202C130.246 43.1313 128.101 44.3073 125.639 45.248L139.75 66H123.646L111.444 47.5723H111.071L91.1489 47.5308V66H77.9922V1.12939ZM111.32 36.1587C113.81 36.1587 115.982 35.8682 117.836 35.2871C119.717 34.7061 121.281 33.8898 122.526 32.8384C123.799 31.7869 124.739 30.5142 125.348 29.02C125.985 27.4982 126.303 25.8104 126.303 23.9565C126.303 20.3319 125.058 17.5373 122.567 15.5728C120.077 13.5806 116.328 12.5845 111.32 12.5845H91.1489V36.1587H111.32ZM155.771 1.12939H211.012V12.6675H168.927V25.6167H206.198V36.4492H168.927V54.5034H211.884V66H155.771V1.12939ZM248.615 1.12939H262.56L293.937 66H280.116L274.928 55.0845H237.035L232.013 66H218.151L248.615 1.12939ZM269.74 44.252L255.712 14.7842L242.057 44.252H269.74ZM304.064 1.12939H317.221L340.795 24.7866L364.369 1.12939H377.526V66H364.369V19.3496L340.795 42.0522L317.221 19.3496V66H304.064V1.12939ZM399.025 46.7007C401.377 48.0288 403.756 49.2324 406.164 50.3115C408.598 51.363 411.116 52.2622 413.717 53.0093C416.318 53.7287 419.044 54.2821 421.894 54.6694C424.771 55.0568 427.829 55.2505 431.066 55.2505C434.967 55.2505 438.288 55.0015 441.027 54.5034C443.766 53.9777 445.993 53.2721 447.709 52.3867C449.452 51.4736 450.711 50.3945 451.486 49.1494C452.288 47.9043 452.689 46.5485 452.689 45.082C452.689 42.7301 451.707 40.8763 449.743 39.5205C447.778 38.137 444.748 37.4453 440.653 37.4453C438.855 37.4453 436.959 37.5698 434.967 37.8188C432.975 38.0402 430.955 38.2892 428.908 38.5659C426.888 38.8426 424.882 39.1055 422.89 39.3545C420.925 39.5758 419.071 39.6865 417.328 39.6865C414.423 39.6865 411.628 39.313 408.944 38.5659C406.288 37.8188 403.922 36.6982 401.847 35.2041C399.8 33.71 398.167 31.8423 396.95 29.6011C395.732 27.3599 395.124 24.7451 395.124 21.7568C395.124 19.986 395.359 18.229 395.829 16.4858C396.327 14.7427 397.102 13.0825 398.153 11.5054C399.232 9.90055 400.616 8.42025 402.304 7.06445C403.992 5.68099 406.025 4.49121 408.405 3.49512C410.812 2.49902 413.579 1.72428 416.706 1.1709C419.86 0.589844 423.443 0.299316 427.455 0.299316C430.36 0.299316 433.279 0.465332 436.212 0.797363C439.145 1.10173 441.995 1.54443 444.762 2.12549C447.557 2.70654 450.241 3.41211 452.814 4.24219C455.387 5.0446 457.781 5.94385 459.994 6.93994L454.225 17.5649C452.399 16.7625 450.434 16.0293 448.332 15.3652C446.229 14.6735 444.029 14.0786 441.732 13.5806C439.436 13.0825 437.056 12.6951 434.594 12.4185C432.159 12.1141 429.669 11.9619 427.123 11.9619C423.498 11.9619 420.51 12.2248 418.158 12.7505C415.834 13.2762 413.98 13.9541 412.597 14.7842C411.213 15.5866 410.245 16.4997 409.691 17.5234C409.166 18.5195 408.903 19.5156 408.903 20.5117C408.903 22.4486 409.774 24.0396 411.518 25.2847C413.261 26.5021 415.917 27.1108 419.486 27.1108C420.925 27.1108 422.571 27.014 424.425 26.8203C426.307 26.599 428.271 26.3638 430.319 26.1147C432.394 25.8657 434.497 25.6444 436.627 25.4507C438.786 25.2293 440.875 25.1187 442.895 25.1187C446.713 25.1187 450.089 25.5475 453.021 26.4053C455.982 27.263 458.458 28.4943 460.451 30.0991C462.443 31.6763 463.951 33.5993 464.975 35.8682C465.998 38.1094 466.51 40.6273 466.51 43.4219C466.51 47.1572 465.639 50.4914 463.896 53.4243C462.18 56.3296 459.717 58.7922 456.508 60.812C453.326 62.8042 449.48 64.326 444.97 65.3774C440.46 66.4012 435.438 66.9131 429.904 66.9131C426.251 66.9131 422.682 66.6779 419.196 66.2075C415.709 65.7648 412.361 65.1284 409.152 64.2983C405.97 63.4406 402.926 62.4307 400.021 61.2686C397.143 60.0788 394.473 58.7783 392.011 57.3672L399.025 46.7007ZM528.766 12.6675H504.818V1.12939H565.871V12.6675H541.923V66H528.766V12.6675ZM576.122 33.3779C576.122 28.4805 577.021 23.998 578.82 19.9307C580.618 15.8633 583.136 12.377 586.374 9.47168C589.639 6.53874 593.54 4.26986 598.078 2.66504C602.643 1.06022 607.693 0.257812 613.227 0.257812C618.733 0.257812 623.769 1.06022 628.334 2.66504C632.899 4.26986 636.801 6.53874 640.038 9.47168C643.303 12.377 645.835 15.8633 647.633 19.9307C649.432 23.998 650.331 28.4805 650.331 33.3779C650.331 38.3031 649.432 42.827 647.633 46.9497C645.835 51.0448 643.303 54.5726 640.038 57.5332C636.801 60.4938 632.899 62.8042 628.334 64.4644C623.769 66.0968 618.733 66.9131 613.227 66.9131C607.693 66.9131 602.643 66.0968 598.078 64.4644C593.54 62.8042 589.639 60.4938 586.374 57.5332C583.136 54.5726 580.618 51.0448 578.82 46.9497C577.021 42.827 576.122 38.3031 576.122 33.3779ZM589.279 33.3779C589.279 36.7259 589.874 39.7419 591.063 42.4258C592.281 45.1097 593.955 47.4062 596.085 49.3154C598.244 51.1969 600.775 52.6496 603.681 53.6733C606.614 54.6971 609.796 55.209 613.227 55.209C616.658 55.209 619.826 54.6971 622.731 53.6733C625.664 52.6496 628.196 51.1969 630.326 49.3154C632.457 47.4062 634.131 45.1097 635.348 42.4258C636.566 39.7419 637.174 36.7259 637.174 33.3779C637.174 30.0299 636.566 27.0278 635.348 24.3716C634.131 21.7153 632.457 19.4741 630.326 17.6479C628.196 15.7941 625.664 14.383 622.731 13.4146C619.826 12.4461 616.658 11.9619 613.227 11.9619C609.796 11.9619 606.614 12.4461 603.681 13.4146C600.775 14.383 598.244 15.7941 596.085 17.6479C593.955 19.4741 592.281 21.7153 591.063 24.3716C589.874 27.0278 589.279 30.0299 589.279 33.3779ZM684.489 1.12939H699.057L719.435 50.6021L739.813 1.12939H754.381L725.951 66H712.919L684.489 1.12939ZM762.475 1.12939H775.714V66H762.475V1.12939ZM795.553 46.7007C797.905 48.0288 800.285 49.2324 802.692 50.3115C805.127 51.363 807.645 52.2622 810.246 53.0093C812.847 53.7287 815.572 54.2821 818.422 54.6694C821.299 55.0568 824.357 55.2505 827.594 55.2505C831.496 55.2505 834.816 55.0015 837.555 54.5034C840.294 53.9777 842.522 53.2721 844.237 52.3867C845.98 51.4736 847.239 50.3945 848.014 49.1494C848.817 47.9043 849.218 46.5485 849.218 45.082C849.218 42.7301 848.236 40.8763 846.271 39.5205C844.306 38.137 841.277 37.4453 837.182 37.4453C835.383 37.4453 833.488 37.5698 831.496 37.8188C829.503 38.0402 827.484 38.2892 825.436 38.5659C823.416 38.8426 821.41 39.1055 819.418 39.3545C817.453 39.5758 815.6 39.6865 813.856 39.6865C810.951 39.6865 808.157 39.313 805.473 38.5659C802.816 37.8188 800.451 36.6982 798.375 35.2041C796.328 33.71 794.695 31.8423 793.478 29.6011C792.261 27.3599 791.652 24.7451 791.652 21.7568C791.652 19.986 791.887 18.229 792.357 16.4858C792.855 14.7427 793.63 13.0825 794.682 11.5054C795.761 9.90055 797.144 8.42025 798.832 7.06445C800.52 5.68099 802.554 4.49121 804.933 3.49512C807.34 2.49902 810.107 1.72428 813.234 1.1709C816.388 0.589844 819.971 0.299316 823.983 0.299316C826.889 0.299316 829.808 0.465332 832.741 0.797363C835.674 1.10173 838.524 1.54443 841.291 2.12549C844.085 2.70654 846.769 3.41211 849.342 4.24219C851.916 5.0446 854.309 5.94385 856.522 6.93994L850.753 17.5649C848.927 16.7625 846.963 16.0293 844.86 15.3652C842.757 14.6735 840.557 14.0786 838.261 13.5806C835.964 13.0825 833.585 12.6951 831.122 12.4185C828.687 12.1141 826.197 11.9619 823.651 11.9619C820.027 11.9619 817.038 12.2248 814.687 12.7505C812.362 13.2762 810.508 13.9541 809.125 14.7842C807.742 15.5866 806.773 16.4997 806.22 17.5234C805.694 18.5195 805.431 19.5156 805.431 20.5117C805.431 22.4486 806.303 24.0396 808.046 25.2847C809.789 26.5021 812.445 27.1108 816.015 27.1108C817.453 27.1108 819.1 27.014 820.954 26.8203C822.835 26.599 824.8 26.3638 826.847 26.1147C828.922 25.8657 831.025 25.6444 833.156 25.4507C835.314 25.2293 837.403 25.1187 839.423 25.1187C843.241 25.1187 846.617 25.5475 849.55 26.4053C852.51 27.263 854.987 28.4943 856.979 30.0991C858.971 31.6763 860.479 33.5993 861.503 35.8682C862.527 38.1094 863.039 40.6273 863.039 43.4219C863.039 47.1572 862.167 50.4914 860.424 53.4243C858.708 56.3296 856.246 58.7922 853.036 60.812C849.854 62.8042 846.008 64.326 841.498 65.3774C836.988 66.4012 831.966 66.9131 826.432 66.9131C822.78 66.9131 819.21 66.6779 815.724 66.2075C812.238 65.7648 808.89 65.1284 805.68 64.2983C802.498 63.4406 799.455 62.4307 796.549 61.2686C793.672 60.0788 791.002 58.7783 788.539 57.3672L795.553 46.7007ZM875.075 1.12939H888.231V36.8643C888.231 39.7972 888.633 42.4119 889.435 44.7085C890.237 46.9774 891.427 48.9004 893.004 50.4775C894.609 52.0547 896.588 53.2583 898.939 54.0884C901.291 54.8908 904.031 55.292 907.157 55.292C910.256 55.292 912.982 54.8908 915.333 54.0884C917.713 53.2583 919.691 52.0547 921.269 50.4775C922.873 48.9004 924.077 46.9774 924.879 44.7085C925.682 42.4119 926.083 39.7972 926.083 36.8643V1.12939H939.24V38.4414C939.24 42.7025 938.52 46.5762 937.082 50.0625C935.643 53.5488 933.554 56.5371 930.814 59.0273C928.075 61.5176 924.713 63.4406 920.729 64.7964C916.772 66.1522 912.248 66.8301 907.157 66.8301C902.066 66.8301 897.528 66.1522 893.544 64.7964C889.587 63.4406 886.239 61.5176 883.5 59.0273C880.761 56.5371 878.672 53.5488 877.233 50.0625C875.794 46.5762 875.075 42.7025 875.075 38.4414V1.12939ZM977.423 1.12939H991.369L1022.75 66H1008.92L1003.74 55.0845H965.844L960.822 66H946.959L977.423 1.12939ZM998.549 44.252L984.521 14.7842L970.866 44.252H998.549ZM1032.83 1.12939H1045.99V54.4619H1083.71V66H1032.83V1.12939ZM1099.53 46.7007C1101.88 48.0288 1104.26 49.2324 1106.67 50.3115C1109.1 51.363 1111.62 52.2622 1114.22 53.0093C1116.82 53.7287 1119.55 54.2821 1122.4 54.6694C1125.27 55.0568 1128.33 55.2505 1131.57 55.2505C1135.47 55.2505 1138.79 55.0015 1141.53 54.5034C1144.27 53.9777 1146.5 53.2721 1148.21 52.3867C1149.96 51.4736 1151.21 50.3945 1151.99 49.1494C1152.79 47.9043 1153.19 46.5485 1153.19 45.082C1153.19 42.7301 1152.21 40.8763 1150.25 39.5205C1148.28 38.137 1145.25 37.4453 1141.16 37.4453C1139.36 37.4453 1137.46 37.5698 1135.47 37.8188C1133.48 38.0402 1131.46 38.2892 1129.41 38.5659C1127.39 38.8426 1125.38 39.1055 1123.39 39.3545C1121.43 39.5758 1119.57 39.6865 1117.83 39.6865C1114.93 39.6865 1112.13 39.313 1109.45 38.5659C1106.79 37.8188 1104.43 36.6982 1102.35 35.2041C1100.3 33.71 1098.67 31.8423 1097.45 29.6011C1096.24 27.3599 1095.63 24.7451 1095.63 21.7568C1095.63 19.986 1095.86 18.229 1096.33 16.4858C1096.83 14.7427 1097.6 13.0825 1098.66 11.5054C1099.74 9.90055 1101.12 8.42025 1102.81 7.06445C1104.49 5.68099 1106.53 4.49121 1108.91 3.49512C1111.31 2.49902 1114.08 1.72428 1117.21 1.1709C1120.36 0.589844 1123.95 0.299316 1127.96 0.299316C1130.86 0.299316 1133.78 0.465332 1136.72 0.797363C1139.65 1.10173 1142.5 1.54443 1145.27 2.12549C1148.06 2.70654 1150.74 3.41211 1153.32 4.24219C1155.89 5.0446 1158.28 5.94385 1160.5 6.93994L1154.73 17.5649C1152.9 16.7625 1150.94 16.0293 1148.83 15.3652C1146.73 14.6735 1144.53 14.0786 1142.24 13.5806C1139.94 13.0825 1137.56 12.6951 1135.1 12.4185C1132.66 12.1141 1130.17 11.9619 1127.63 11.9619C1124 11.9619 1121.01 12.2248 1118.66 12.7505C1116.34 13.2762 1114.48 13.9541 1113.1 14.7842C1111.72 15.5866 1110.75 16.4997 1110.19 17.5234C1109.67 18.5195 1109.41 19.5156 1109.41 20.5117C1109.41 22.4486 1110.28 24.0396 1112.02 25.2847C1113.76 26.5021 1116.42 27.1108 1119.99 27.1108C1121.43 27.1108 1123.07 27.014 1124.93 26.8203C1126.81 26.599 1128.77 26.3638 1130.82 26.1147C1132.9 25.8657 1135 25.6444 1137.13 25.4507C1139.29 25.2293 1141.38 25.1187 1143.4 25.1187C1147.22 25.1187 1150.59 25.5475 1153.52 26.4053C1156.49 27.263 1158.96 28.4943 1160.95 30.0991C1162.95 31.6763 1164.45 33.5993 1165.48 35.8682C1166.5 38.1094 1167.01 40.6273 1167.01 43.4219C1167.01 47.1572 1166.14 50.4914 1164.4 53.4243C1162.68 56.3296 1160.22 58.7922 1157.01 60.812C1153.83 62.8042 1149.98 64.326 1145.47 65.3774C1140.96 66.4012 1135.94 66.9131 1130.41 66.9131C1126.75 66.9131 1123.19 66.6779 1119.7 66.2075C1116.21 65.7648 1112.86 65.1284 1109.65 64.2983C1106.47 63.4406 1103.43 62.4307 1100.52 61.2686C1097.65 60.0788 1094.98 58.7783 1092.51 57.3672L1099.53 46.7007Z" fill="black"/>
</svg>
