<svg width="2501" height="1505" viewBox="0 0 2501 1505" fill="none" xmlns="http://www.w3.org/2000/svg">
<g clip-path="url(#clip0_815_1416)">
<path d="M1250.82 2.37842C917.489 2.37842 709.149 169.048 625.819 502.378C750.819 335.709 896.649 273.208 1063.32 314.878C1158.41 338.648 1226.38 407.642 1301.61 484C1424.17 608.404 1566 752.378 1875.82 752.378C2209.15 752.378 2417.49 585.708 2500.82 252.378C2375.82 419.048 2229.99 481.548 2063.32 439.878C1968.23 416.109 1900.26 347.115 1825.03 270.757C1702.47 146.353 1560.63 2.37842 1250.82 2.37842ZM625.819 752.378C292.489 752.378 84.1494 919.048 0.819336 1252.38C125.819 1085.71 271.649 1023.21 438.319 1064.88C533.407 1088.65 601.376 1157.64 676.61 1234C799.169 1358.4 941.005 1502.38 1250.82 1502.38C1584.15 1502.38 1792.49 1335.71 1875.82 1002.38C1750.82 1169.05 1604.99 1231.55 1438.32 1189.88C1343.23 1166.11 1275.26 1097.11 1200.03 1020.76C1077.47 896.353 935.634 752.378 625.819 752.378Z" fill="url(#paint0_linear_815_1416)"/>
</g>
<defs>
<linearGradient id="paint0_linear_815_1416" x1="-17778.4" y1="73730.4" x2="-10375.6" y2="156799" gradientUnits="userSpaceOnUse">
<stop stop-color="#2298BD"/>
<stop offset="1" stop-color="#0ED7B5"/>
</linearGradient>
<clipPath id="clip0_815_1416">
<rect width="2500" height="1504" fill="white" transform="translate(0.819336 0.378418)"/>
</clipPath>
</defs>
</svg>
